<svg width="59" height="46" viewBox="0 0 59 46" fill="none" xmlns="http://www.w3.org/2000/svg">
<path d="M58.8657 6.06236C56.6894 6.98489 54.381 7.59043 52.0172 7.85886C54.4793 6.44686 56.3698 4.2109 57.26 1.54679C54.9194 2.87577 52.3587 3.81213 49.6883 4.31539C47.5132 2.09812 44.4145 0.712402 40.9848 0.712402C34.3996 0.712402 29.0606 5.8208 29.0606 12.1214C29.0606 13.0157 29.1662 13.8864 29.3693 14.7216C19.4596 14.2457 10.6736 9.70358 4.79245 2.80086C3.76628 4.48592 3.17828 6.44599 3.17828 8.53662C3.17828 12.495 5.28351 15.987 8.48278 18.0331C6.58926 17.9763 4.73739 17.487 3.08179 16.6059C3.08111 16.6537 3.08111 16.7014 3.08111 16.7495C3.08111 22.2773 7.19122 26.8887 12.6458 27.9368C10.8899 28.3938 9.04815 28.4606 7.26115 28.1323C8.77837 32.6651 13.182 35.9635 18.3996 36.0558C14.3188 39.1157 9.17726 40.9398 3.59101 40.9398C2.62842 40.9398 1.67944 40.8857 0.746582 40.7804C6.02339 44.0176 12.291 45.9064 19.0246 45.9064C40.9571 45.9064 52.9503 28.5212 52.9503 13.4445C52.9503 12.9497 52.9389 12.4576 52.9158 11.9684C55.2502 10.3537 57.265 8.35374 58.8657 6.06236Z" fill="#55ACEE"/>
</svg>
