<svg width="16" height="9" viewBox="0 0 16 9" fill="none" xmlns="http://www.w3.org/2000/svg">
<path d="M14.7721 2.06514L8.21432 8.03842C8.13626 8.10932 8.05168 8.15943 7.9606 8.18873C7.86952 8.21851 7.77194 8.2334 7.66785 8.2334C7.56376 8.2334 7.46617 8.21851 7.37509 8.18873C7.28401 8.15943 7.19944 8.10932 7.12137 8.03842L0.544113 2.06514C0.361954 1.89971 0.270874 1.69292 0.270874 1.44477C0.270874 1.19662 0.368459 0.98392 0.56363 0.806671C0.758801 0.629423 0.9865 0.540798 1.24673 0.540798C1.50696 0.540798 1.73465 0.629423 1.92983 0.806671L7.66785 6.01779L13.4059 0.806671C13.588 0.641239 13.8123 0.558523 14.0788 0.558523C14.3458 0.558523 14.5769 0.647147 14.7721 0.824396C14.9672 1.00164 15.0648 1.20844 15.0648 1.44477C15.0648 1.6811 14.9672 1.88789 14.7721 2.06514Z" fill="white"/>
</svg>
