<svg width="71" height="47" viewBox="0 0 71 47" fill="none" xmlns="http://www.w3.org/2000/svg">
<path d="M4.12778 46.6186C3.01334 46.6186 2.07983 46.2493 1.32726 45.5108C0.572057 44.7749 0.194458 43.8621 0.194458 42.7723C0.194458 41.6825 0.572057 40.7696 1.32726 40.0337C2.07983 39.2952 3.01334 38.926 4.12778 38.926H67.0609C68.1754 38.926 69.1089 39.2952 69.8615 40.0337C70.6167 40.7696 70.9943 41.6825 70.9943 42.7723C70.9943 43.8621 70.6167 44.7749 69.8615 45.5108C69.1089 46.2493 68.1754 46.6186 67.0609 46.6186H4.12778ZM4.12778 27.3871C3.01334 27.3871 2.07983 27.0179 1.32726 26.2794C0.572057 25.5434 0.194458 24.6306 0.194458 23.5408C0.194458 22.451 0.572057 21.5369 1.32726 20.7984C2.07983 20.0625 3.01334 19.6945 4.12778 19.6945H67.0609C68.1754 19.6945 69.1089 20.0625 69.8615 20.7984C70.6167 21.5369 70.9943 22.451 70.9943 23.5408C70.9943 24.6306 70.6167 25.5434 69.8615 26.2794C69.1089 27.0179 68.1754 27.3871 67.0609 27.3871H4.12778ZM4.12778 8.15561C3.01334 8.15561 2.07983 7.78764 1.32726 7.05172C0.572057 6.31323 0.194458 5.39909 0.194458 4.30931C0.194458 3.21953 0.572057 2.30539 1.32726 1.5669C2.07983 0.830976 3.01334 0.463013 4.12778 0.463013H67.0609C68.1754 0.463013 69.1089 0.830976 69.8615 1.5669C70.6167 2.30539 70.9943 3.21953 70.9943 4.30931C70.9943 5.39909 70.6167 6.31323 69.8615 7.05172C69.1089 7.78764 68.1754 8.15561 67.0609 8.15561H4.12778Z" fill="white"/>
</svg>
